<?xml version="1.0" encoding="UTF-8"?><svg id="Graphic_Element" xmlns="http://www.w3.org/2000/svg" viewBox="0 0 1200 1200"><path d="m456.97,93.7c-30.77-23.55-71.11-28.87-108.79-24.25-17.15,2.1-36.47,4.62-50.99,14.74-15,10.45-30.37,26.22-40.53,41.37-13.26,19.77-19.08,43.37-19.54,66.98-.46,23.33,1.49,49.74,7.75,72.09.8,2.85,1.6,5.7,2.4,8.55,4.66,16.64,8.44,33.24,12.61,50.13,2.1,8.51,4.41,17,7.87,25.05,6.97,16.21,18.22,30.08,28.27,44.43,8.3,11.86,20.58,19.56,28.8,31.69,9.78,14.44,12.5,34.31,16.2,50.96,4.49,20.22-.29,43.66.2,64.27.47,19.6-4.37,38.78-6.26,58.22-2.06,21.17-2.9,42.43-3.3,63.69-.77,40.53-3.25,81.26-2.35,121.78.89,40.25,3.69,80.34,1.12,120.6-2.59,40.58-8.36,81.03-7.76,121.76.3,20.22,1.54,40.41,1.6,60.64.02,7.39,3.33,12.44,8.04,15.29,5.09,7.87,14.3,12.06,25.93,12.5,19.22.73,35.82-7.5,41.29-27.13,2.29-8.22,1.98-17.2,1.72-25.67-.31-9.89.91-19.61.76-29.48-.3-19.54-5.41-39.1-8.24-58.38-5.82-39.58-2.64-78.28-1.17-118.02,1.5-40.59-.86-81.73-4.89-122.12-3.96-39.62.36-79.01.4-118.78.02-20.57-.2-41.19,1.16-61.73,2.17-32.79,11.24-64.31,13.42-97.06.88-13.18,3.5-27.2,12.8-36.59,6.09-6.15,14.34-9.56,21.78-13.99,20.91-12.46,35.7-33.4,45.1-55.86,5.87-14.02,9.82-28.74,13.06-43.57,2.61-11.95,6.52-21.86,10.28-33.18,8.82-26.48,8.55-62,2.05-88.87-7.99-33.01-23.14-68.93-50.78-90.09Z"/><path d="m868.56,91.31c-1.32,9.39-1.28,18.82-2.03,28.25-.78,9.77-3.06,19.29-3.5,29.1-.86,18.86,3.09,37.52.61,56.28-1.2,9.07-3.61,17.75-5.5,26.67-1.71,8.06-.71,16.26-2.52,24.21-2.08,9.11-3.83,22.79-11.18,28.57-10.38,8.16-21.12,18.24-34.29,20.99-.13-33-1.8-66.01-.71-99.03.59-17.82,1.56-35.67,1.14-53.5-.46-19.6-3.38-39-5.62-58.45-3.33-28.93-48.33-23.96-44.99,5.03,3.87,33.67,5.87,65.92,4.75,99.81-1.06,32.03-1.34,64.44-.23,96.48.09,2.67.1,5.34.13,8-3.45-.94-8.03-2.2-10.19-4.81-5.01-6.03-6.68-18.86-9.13-26.34-6.12-18.73-9.08-38.1-11.35-57.63-2.53-21.72-5.89-43.29-5.62-65.2.26-21.12,6.45-40.87,4.88-62.37-2.13-29.08-47.12-24.01-44.99,5.03.69,9.46.12,18.71-1.96,27.99-2.58,11.5-2.77,22.62-2.92,34.38-.27,22.63,3.2,45,5.88,67.42,2.89,24.17,7.61,47.81,15.3,70.93,7.2,21.64,13.63,38.88,35.34,49.47,7.31,3.57,15.19,5.24,23.07,6.94-.84,13.15-1.73,26.31-2.03,39.56-.77,33.01-.58,65.9-4.04,98.77-7.15,67.81-8.21,136.82-11.1,204.95-2.98,70.25-5.27,140.53-6.89,210.82-.95,41.47-1.67,82.95-2.15,124.44-.17,14.87-.3,29.91,3.05,44.41,4.67,20.24,20.62,56.44,48.37,42.23,9.29-4.76,15.14-14.28,19.37-23.83,13.32-30.1,14.93-63.95,14.86-96.87-.12-54.81-5.66-109.81-9.65-164.1-.79-10.78-2.33-21.01-3.94-31.54-3.72-24.32-3.09-50.28-3.75-74.84-1.36-49.92-.42-99.91,2.81-149.74.71-10.95,1.53-21.91,1.44-32.88-.11-12.98-1.51-25.92-1.89-38.9-.4-13.72.34-27.45,1.08-41.16,1.57-29.18,3.12-58.37,4.72-87.55.5-9.13-.34-18,7.95-23.49,9.38-6.22,21.33-6.9,30.78-14.04,15.08-11.4,31.12-22.04,38.91-39.99,3.38-7.79,5.37-16.23,7.43-24.44,2.25-8.95,2.42-16.9,3.44-26.01,1.33-11.92,5.54-23.38,6.96-35.36,1.49-12.59,1.35-25.23.14-37.83-1.14-11.92-.76-22.76,1.12-34.58,2.06-12.98,1.59-26.12,3.41-39.13,4.04-28.87-40.68-35.99-44.72-7.11Z"/></svg>