<?xml version="1.0" encoding="iso-8859-1"?>
<!-- Uploaded to: SVG Repo, www.svgrepo.com, Generator: SVG Repo Mixer Tools -->
<!DOCTYPE svg PUBLIC "-//W3C//DTD SVG 1.1//EN" "http://www.w3.org/Graphics/SVG/1.1/DTD/svg11.dtd">
<svg fill="#56494c" height="800px" width="800px" version="1.1" id="Capa_1" xmlns="http://www.w3.org/2000/svg" xmlns:xlink="http://www.w3.org/1999/xlink" 
	 viewBox="0 0 57.5 57.5" xml:space="preserve">
<g>
	<path d="M55.036,17.125c-0.027-0.258-0.117-0.509-0.274-0.729c-0.036-0.05-0.085-0.094-0.123-0.143C49.981,6.644,40.127,0,28.75,0
		C12.897,0,0,12.897,0,28.75S12.897,57.5,28.75,57.5S57.5,44.603,57.5,28.75C57.5,24.614,56.615,20.683,55.036,17.125z M28.75,55.5
		C14,55.5,2,43.5,2,28.75S14,2,28.75,2c0.99,0,1.967,0.058,2.929,0.164c-1.861,0.34-4.042,1.473-5.861,3.361
		c-0.388,0.049-0.776,0.098-1.157,0.164c-0.544,0.096-0.907,0.614-0.813,1.158c0.049,0.279,0.221,0.496,0.439,0.642
		c-0.156,0.239-0.324,0.463-0.468,0.718c-0.293,0.519-0.543,1.047-0.756,1.578c0,0.001-0.002,0.002-0.002,0.004
		c-0.001,0.003-0.002,0.005-0.003,0.008c-0.189,0.473-0.344,0.948-0.473,1.422c-0.007,0.025-0.015,0.05-0.021,0.075
		c-0.132,0.491-0.231,0.979-0.303,1.462c-0.001,0.01-0.005,0.021-0.006,0.031c0,0.003,0.001,0.005,0,0.008
		c-0.158,1.087-0.17,2.136-0.057,3.102c0.001,0.007-0.002,0.012-0.001,0.019c0.003,0.022,0.008,0.043,0.011,0.066
		c0.031,0.251,0.071,0.496,0.119,0.734c0.006,0.031,0.01,0.063,0.016,0.093c0.055,0.258,0.12,0.506,0.193,0.746
		c0.022,0.073,0.049,0.142,0.073,0.214c0.055,0.165,0.114,0.325,0.178,0.479c0.032,0.079,0.066,0.155,0.101,0.23
		c0.07,0.152,0.144,0.297,0.222,0.437c0.022,0.039,0.04,0.084,0.062,0.122c0.006,0.01,0.014,0.016,0.02,0.026
		c0.117,0.196,0.239,0.383,0.372,0.55c0.32,0.405,0.799,0.638,1.313,0.638c0.688,0,1.294-0.414,1.544-1.055
		c0.156-0.4,0.324-0.796,0.489-1.192c0.28-0.672,0.57-1.339,0.87-1.99c0.47-1.021,0.97-2.027,1.498-3.018
		c0.365-0.683,0.744-1.365,1.135-2.032c0.512-0.876,1.042-1.742,1.6-2.59c0.002-0.003,0.005-0.005,0.007-0.008
		c0.036-0.055,0.073-0.109,0.109-0.164c0.12-0.181,0.244-0.36,0.366-0.54c0.266,0.048,0.53,0.099,0.793,0.156
		c0.537,0.118,1.072-0.226,1.189-0.766c0.114-0.525-0.211-1.036-0.726-1.172c0.151-0.206,0.297-0.415,0.451-0.619l0.526-0.698
		c0.313-0.416,0.393-0.956,0.212-1.444c-0.063-0.169-0.162-0.316-0.274-0.449c6.819,1.546,12.657,5.7,16.403,11.359
		c-1.096-0.338-2.322-0.532-3.605-0.532c-0.311,0-0.621,0.016-0.93,0.037c-0.223-0.26-0.443-0.523-0.676-0.774
		c-0.378-0.402-1.01-0.421-1.414-0.047c-0.333,0.312-0.403,0.798-0.206,1.185c-0.323,0.082-0.645,0.173-0.962,0.279
		c-0.558,0.187-1.091,0.408-1.599,0.655c-0.001,0-0.003,0-0.004,0.001c-0.003,0.001-0.005,0.003-0.008,0.004
		c-0.415,0.202-0.809,0.426-1.188,0.662c-0.04,0.025-0.08,0.049-0.12,0.074c-0.391,0.249-0.762,0.513-1.112,0.79
		c-0.004,0.004-0.01,0.006-0.014,0.01c-0.002,0.001-0.002,0.003-0.004,0.005c-1.022,0.814-1.864,1.734-2.49,2.674
		c-0.043,0.064-0.079,0.128-0.12,0.193c-0.09,0.142-0.179,0.285-0.26,0.427c-0.051,0.091-0.096,0.181-0.144,0.272
		c-0.059,0.115-0.118,0.229-0.171,0.343c-0.05,0.107-0.094,0.212-0.137,0.319c-0.04,0.098-0.079,0.195-0.114,0.292
		c-0.019,0.053-0.045,0.107-0.063,0.16c-0.005,0.015-0.001,0.03-0.006,0.045c-0.154,0.471-0.255,0.932-0.282,1.367
		c-0.03,0.469,0.129,0.915,0.448,1.255c0.313,0.335,0.754,0.526,1.208,0.526c0.259,0,0.509-0.06,0.743-0.177
		c0.092-0.046,0.185-0.087,0.277-0.133c0.632-0.313,1.27-0.612,1.912-0.901c0.963-0.433,1.938-0.84,2.922-1.22
		c0.74-0.286,1.485-0.561,2.236-0.817c1.035-0.352,2.082-0.667,3.135-0.961c0.082,0.184,0.162,0.368,0.238,0.555
		c0.159,0.386,0.532,0.619,0.925,0.619c0.127,0,0.256-0.024,0.381-0.075c0.511-0.21,0.754-0.795,0.544-1.306
		c-0.042-0.102-0.093-0.199-0.136-0.301c0.889-0.215,1.781-0.416,2.681-0.589l0.629-0.122c1.233,3.072,1.918,6.42,1.918,9.927
		C55.5,43.5,43.5,55.5,28.75,55.5z"/>
	<path d="M21.112,48.584c0.531-0.276,0.878-0.818,0.903-1.414c0.016-0.37-0.1-0.714-0.302-1.004
		c-0.014-0.021-0.016-0.045-0.032-0.066c-0.012-0.015-0.03-0.023-0.042-0.038c-0.109-0.133-0.233-0.255-0.384-0.352
		c-0.004-0.002-0.006-0.006-0.009-0.009c-0.011-0.007-0.023-0.015-0.034-0.022c-3.245-2.056-6.267-4.434-9.041-7.079
		c-0.209-0.199-0.417-0.398-0.623-0.601c-0.856-0.841-1.696-1.7-2.5-2.594l-0.584-0.65c-0.003-0.003-0.008-0.005-0.011-0.009
		c-0.094-0.102-0.202-0.184-0.317-0.256c-0.012-0.007-0.02-0.019-0.032-0.026c-0.08-0.29-0.154-0.582-0.222-0.876
		c-0.125-0.538-0.66-0.869-1.2-0.749c-0.538,0.125-0.873,0.662-0.749,1.2c0.062,0.267,0.141,0.527,0.211,0.791
		c-0.083,0.104-0.157,0.215-0.211,0.341c-1.152,2.665,0.19,7.716,4.028,10.986c2.111,1.798,4.847,2.911,7.428,3.062
		c0.38,0.211,0.764,0.418,1.156,0.609c0.142,0.068,0.29,0.101,0.437,0.101c0.371,0,0.728-0.207,0.9-0.563
		c0.058-0.119,0.083-0.243,0.091-0.367C20.385,48.893,20.773,48.76,21.112,48.584z"/>
	<path d="M22.377,28.171c0.182,0.49,0.594,0.849,1.104,0.961c0.318,0.07,0.662,0.105,1.021,0.105h0.001
		c0.384,0,0.795-0.052,1.218-0.134c0.038-0.003,0.075-0.004,0.113-0.012c0.283-0.059,0.573-0.142,0.864-0.236
		c0.05-0.016,0.101-0.037,0.151-0.054c0.323-0.111,0.648-0.242,0.973-0.393c0.064-0.03,0.127-0.055,0.191-0.087
		c0.29-0.141,0.578-0.293,0.863-0.464c0.019-0.011,0.029-0.03,0.046-0.042c0.842-0.508,1.67-1.148,2.44-1.925
		c0.009-0.009,0.021-0.011,0.03-0.02c0.012-0.012,0.022-0.027,0.035-0.04c0.216-0.22,0.416-0.468,0.62-0.709
		c0.15-0.177,0.309-0.345,0.449-0.53c0.14-0.184,0.265-0.389,0.397-0.584c0.152-0.223,0.317-0.437,0.455-0.669
		c0.012-0.02,0.012-0.042,0.022-0.062c0.04-0.067,0.087-0.125,0.126-0.193c0.492-0.872,0.863-1.768,1.134-2.661
		c0.001-0.005,0.005-0.008,0.006-0.013c0.005-0.017,0.007-0.035,0.012-0.052c0.152-0.509,0.273-1.015,0.359-1.516
		c0-0.001,0-0.003,0.001-0.004c0.302-1.744,0.222-3.41-0.145-4.795c-0.002-0.01,0.001-0.021-0.002-0.031
		c-0.01-0.037-0.023-0.07-0.033-0.106c-0.031-0.109-0.065-0.214-0.099-0.319c-0.038-0.116-0.075-0.232-0.117-0.343
		c-0.029-0.078-0.062-0.151-0.094-0.226c-0.051-0.122-0.102-0.245-0.158-0.36c-0.036-0.075-0.077-0.142-0.116-0.214
		c-0.055-0.102-0.109-0.207-0.168-0.303c-0.103-0.166-0.211-0.322-0.326-0.467c-0.093-0.117-0.202-0.215-0.319-0.302
		c-0.031-0.023-0.065-0.041-0.098-0.062c-0.091-0.059-0.186-0.108-0.286-0.148c-0.04-0.016-0.08-0.03-0.121-0.043
		c-0.103-0.031-0.209-0.051-0.318-0.063c-0.039-0.004-0.077-0.012-0.116-0.013c-0.018-0.001-0.035-0.006-0.053-0.006
		c-0.064,0-0.122,0.021-0.184,0.028c-0.071,0.008-0.141,0.002-0.211,0.019c-0.015,0.004-0.026,0.014-0.04,0.019
		c-0.499,0.135-0.914,0.489-1.109,0.989c-0.331,0.849-0.689,1.687-1.059,2.518c-0.284,0.635-0.579,1.268-0.883,1.892
		c-0.517,1.059-1.064,2.103-1.644,3.128c-0.383,0.677-0.784,1.347-1.193,2.006c-0.574,0.925-1.168,1.838-1.794,2.731
		c-0.392,0.561-0.795,1.115-1.207,1.661l-0.527,0.698c-0.001,0.001-0.001,0.002-0.001,0.002c-0.013,0.016-0.04,0.054-0.05,0.069
		c-0.013,0.019-0.014,0.042-0.025,0.061C22.273,27.254,22.214,27.731,22.377,28.171z"/>
	<path d="M21.491,31.141c0.022,0.435,0.127,0.894,0.292,1.363c0.006,0.022,0.002,0.044,0.009,0.065
		c0.028,0.078,0.068,0.157,0.1,0.236c0.015,0.037,0.031,0.074,0.047,0.112c0.352,0.836,0.898,1.688,1.619,2.485
		c0.025,0.028,0.06,0.039,0.088,0.063c0.651,0.708,1.428,1.379,2.318,1.966c0.019,0.015,0.03,0.036,0.051,0.05
		c0.096,0.062,0.201,0.109,0.298,0.168c0.295,0.181,0.599,0.354,0.914,0.516c0.124,0.063,0.249,0.124,0.375,0.183
		c0.361,0.17,0.735,0.324,1.119,0.463c0.058,0.021,0.112,0.05,0.169,0.07c0.012,0.004,0.025,0.002,0.037,0.006
		c0.341,0.117,0.687,0.225,1.044,0.315c0.643,0.161,1.3,0.257,1.961,0.321c0.031,0.006,0.056,0.023,0.088,0.026
		c0.396,0.034,0.799,0.061,1.168,0.051c0.002,0,0.004,0,0.006,0c0.001,0,0.003,0,0.004,0c0.005,0,0.01,0,0.014,0
		c0.382,0,0.764-0.021,1.145-0.055c0.081-0.007,0.16-0.019,0.241-0.028c0.207-0.022,0.415-0.04,0.619-0.072
		c0.026-0.004,0.045-0.02,0.07-0.026c1.062-0.174,2.061-0.475,2.949-0.879c0.027-0.01,0.055-0.006,0.081-0.018
		c0.114-0.053,0.214-0.115,0.324-0.171c0.101-0.052,0.202-0.104,0.299-0.158c0.193-0.108,0.373-0.222,0.549-0.339
		c0.097-0.065,0.196-0.128,0.288-0.195c0.165-0.121,0.314-0.249,0.46-0.379c0.081-0.072,0.168-0.139,0.244-0.214
		c0.187-0.183,0.353-0.373,0.502-0.569c0.017-0.022,0.04-0.042,0.056-0.064c0.001-0.001,0.001-0.003,0.002-0.005
		c0.002-0.002,0.004-0.004,0.005-0.006l0.015-0.021c0.012-0.017,0.013-0.036,0.024-0.053c0.306-0.471,0.366-1.066,0.138-1.581
		c-0.242-0.549-0.743-0.914-1.342-0.978c-0.575-0.061-1.149-0.133-1.722-0.211c-0.841-0.114-1.69-0.248-2.532-0.399
		c-1.093-0.197-2.18-0.426-3.26-0.685c-0.828-0.198-1.661-0.415-2.485-0.652c-1.067-0.306-2.125-0.646-3.175-1.013
		c-0.774-0.272-1.544-0.553-2.309-0.857c-0.005-0.002-0.01-0.003-0.015-0.005l-0.811-0.323c-0.572-0.228-1.248-0.076-1.669,0.366
		C21.618,30.318,21.47,30.719,21.491,31.141z"/>
	<path d="M40.431,10.796c0.721,0.47,1.422,0.989,2.083,1.544c0.188,0.157,0.415,0.234,0.642,0.234c0.286,0,0.569-0.121,0.767-0.357
		c0.355-0.423,0.3-1.054-0.123-1.408c-0.722-0.606-1.487-1.174-2.274-1.688c-0.462-0.299-1.081-0.172-1.385,0.291
		C39.838,9.874,39.969,10.494,40.431,10.796z"/>
	<path d="M35.786,8.517C36.6,8.8,37.404,9.136,38.178,9.515c0.142,0.07,0.292,0.103,0.439,0.103c0.37,0,0.726-0.205,0.898-0.56
		c0.243-0.496,0.039-1.095-0.457-1.338c-0.847-0.415-1.726-0.782-2.614-1.092c-0.523-0.181-1.092,0.095-1.273,0.615
		C34.989,7.765,35.265,8.335,35.786,8.517z"/>
	<path d="M11.142,16.089c0.323,0,0.641-0.156,0.833-0.445c0.391-0.586,0.659-0.967,0.654-0.967c0.303-0.349,0.618-0.687,0.943-1.014
		c0.39-0.392,0.388-1.024-0.004-1.414s-1.024-0.387-1.414,0.004c-0.36,0.361-0.708,0.736-1.102,1.196c0,0-0.295,0.414-0.742,1.085
		c-0.307,0.46-0.182,1.081,0.277,1.387C10.759,16.034,10.951,16.089,11.142,16.089z"/>
	<path d="M14.675,12.078c-0.018,0.032-0.039,0.061-0.057,0.093c-0.02,0.035-0.02,0.073-0.035,0.109
		c-0.461,0.842-0.846,1.792-1.116,2.821c-0.008,0.023-0.024,0.04-0.031,0.064c-0.027,0.108-0.038,0.22-0.062,0.329
		c-0.08,0.348-0.149,0.702-0.202,1.064c-0.018,0.125-0.033,0.25-0.047,0.376c-0.046,0.399-0.073,0.805-0.082,1.217
		c-0.001,0.061-0.012,0.122-0.012,0.184c0,0.011,0.006,0.021,0.006,0.032c-0.002,0.363,0.006,0.729,0.036,1.098
		c0.056,0.702,0.172,1.379,0.328,2.031c0.001,0.007-0.001,0.013,0.001,0.019c0.007,0.027,0.018,0.052,0.024,0.079
		c0.124,0.5,0.271,0.985,0.444,1.449c0.003,0.007,0.005,0.013,0.008,0.02c0.61,1.627,1.499,3.016,2.497,4.065
		c0.007,0.008,0.009,0.018,0.016,0.026c0.036,0.037,0.073,0.067,0.109,0.104c0.145,0.147,0.292,0.286,0.441,0.418
		c0.068,0.061,0.135,0.124,0.204,0.182c0.188,0.157,0.379,0.303,0.571,0.436c0.093,0.064,0.185,0.118,0.278,0.176
		c0.114,0.071,0.228,0.139,0.342,0.201c0.097,0.052,0.193,0.102,0.289,0.146c0.161,0.075,0.321,0.14,0.48,0.196
		c0.029,0.01,0.059,0.027,0.087,0.036c0.008,0.003,0.02,0.005,0.029,0.009c0.007,0.002,0.014,0.006,0.021,0.008
		c0.004,0.001,0.008,0,0.012,0.002c0.035,0.011,0.07,0.023,0.098,0.029c0.072,0.016,0.145,0.023,0.215,0.023
		c0.005,0,0.009-0.002,0.013-0.002c0.058,0.006,0.114,0.027,0.172,0.027c0.51,0,0.984-0.229,1.304-0.626
		c0.314-0.394,0.431-0.902,0.319-1.396c-0.126-0.561-0.24-1.124-0.35-1.688c-0.163-0.836-0.307-1.682-0.433-2.524
		c-0.166-1.111-0.298-2.226-0.4-3.344c-0.076-0.838-0.136-1.68-0.175-2.511c-0.053-1.13-0.071-2.261-0.058-3.393
		c0.009-0.816,0.028-1.635,0.072-2.439c0-0.001,0-0.003,0-0.005l0.047-0.876c0.02-0.399-0.116-0.777-0.376-1.075
		c0.103-0.011,0.206-0.021,0.306-0.066c0.792-0.357,1.617-0.669,2.452-0.926c0.527-0.163,0.823-0.723,0.661-1.251
		c-0.163-0.527-0.721-0.822-1.251-0.661c-0.913,0.282-1.816,0.623-2.685,1.014c-0.503,0.228-0.728,0.819-0.501,1.323
		c0.012,0.026,0.031,0.045,0.044,0.069c-0.247-0.03-0.5-0.015-0.735,0.078c-0.036,0.014-0.072,0.036-0.107,0.051
		c-0.317-0.339-0.825-0.437-1.237-0.187c-0.813,0.494-1.604,1.044-2.354,1.635c-0.434,0.342-0.508,0.971-0.166,1.404
		C14.271,11.931,14.468,12.026,14.675,12.078z"/>
	<path d="M6.489,32.426c0.039,0,0.079-0.002,0.12-0.007c0.548-0.065,0.939-0.563,0.874-1.112c-0.092-0.762-0.143-1.537-0.151-2.306
		c-0.007-0.549-0.453-0.988-1-0.988c-0.004,0-0.008,0-0.012,0c-0.553,0.007-0.995,0.46-0.988,1.012
		c0.01,0.84,0.065,1.688,0.165,2.521C5.558,32.053,5.989,32.426,6.489,32.426z"/>
	<path d="M6.341,27.592c0.034,0.003,0.068,0.005,0.102,0.005c0.231,0,0.441-0.087,0.613-0.223c0.026,0.088,0.058,0.177,0.086,0.265
		c0.018,0.057,0.028,0.117,0.047,0.175c0.006,0.019,0.019,0.032,0.026,0.05c0.134,0.403,0.281,0.805,0.459,1.203
		c0.231,0.517,0.494,1.007,0.779,1.473c0.004,0.008,0.004,0.017,0.009,0.024c0.009,0.015,0.021,0.028,0.03,0.043
		c0.22,0.355,0.458,0.69,0.703,1.014c0.079,0.105,0.157,0.209,0.239,0.312c0.233,0.289,0.474,0.562,0.723,0.823
		c0.06,0.063,0.112,0.135,0.173,0.197c0.018,0.018,0.042,0.024,0.061,0.041c0.718,0.716,1.487,1.316,2.265,1.79
		c0.026,0.019,0.042,0.047,0.07,0.063c0.854,0.51,1.726,0.862,2.552,1.049c0.08,0.018,0.159,0.037,0.237,0.052
		c0.056,0.01,0.115,0.028,0.17,0.037c0.043,0.007,0.085,0.009,0.127,0.01c0.247,0.035,0.49,0.059,0.723,0.059l0.162-0.003
		c0.599-0.021,1.145-0.36,1.424-0.888c0.28-0.529,0.257-1.148-0.063-1.656c-0.175-0.278-0.341-0.562-0.511-0.843
		c-0.334-0.55-0.658-1.105-0.974-1.666c-0.557-0.99-1.088-1.993-1.586-3.012c-0.321-0.657-0.634-1.334-0.936-2.018
		c-0.432-0.978-0.84-1.967-1.218-2.967c-0.288-0.761-0.566-1.545-0.826-2.336c-0.186-0.563-0.366-1.127-0.534-1.696l-0.248-0.838
		c-0.07-0.236-0.204-0.429-0.363-0.599c-0.023-0.027-0.034-0.06-0.06-0.084c-0.035-0.032-0.071-0.062-0.109-0.091
		c-0.008-0.006-0.013-0.013-0.021-0.019c-0.023-0.313-0.193-0.61-0.483-0.784c-0.474-0.281-1.088-0.128-1.372,0.345
		c-0.246,0.411-0.495,0.84-0.736,1.278c-0.385,0.526-0.712,1.163-0.964,1.889l-0.009-0.003c-0.244,0.522-0.45,1.014-0.614,1.462
		c-0.113,0.308-0.05,0.627,0.116,0.882c-0.03,0.279-0.049,0.563-0.06,0.851c-0.345,0.099-0.632,0.369-0.712,0.745
		c-0.176,0.833-0.308,1.673-0.391,2.495C5.391,27.046,5.791,27.536,6.341,27.592z"/>
	<path d="M25.507,49.925c-1.05-0.159-2.098-0.4-3.114-0.718c-0.529-0.16-1.088,0.131-1.253,0.657
		c-0.164,0.527,0.13,1.088,0.657,1.253c1.113,0.347,2.261,0.61,3.411,0.784c0.051,0.008,0.101,0.012,0.15,0.012
		c0.486,0,0.913-0.355,0.987-0.851C26.429,50.517,26.053,50.007,25.507,49.925z"/>
	<path d="M32.295,49.877c0.005-0.048,0.01-0.097,0.015-0.146c0.002-0.022-0.008-0.041-0.007-0.063
		c0.068-0.933-0.055-1.99-0.365-3.083c-0.007-0.039,0.001-0.076-0.01-0.115c-0.034-0.114-0.087-0.225-0.125-0.338
		c-0.093-0.283-0.197-0.568-0.315-0.853c-0.081-0.195-0.168-0.386-0.26-0.578c-0.147-0.31-0.305-0.619-0.481-0.925
		c-0.034-0.059-0.059-0.122-0.094-0.181c-0.015-0.024-0.039-0.038-0.055-0.06c-0.504-0.833-1.118-1.64-1.844-2.383
		c-0.009-0.01-0.011-0.022-0.021-0.031c-0.024-0.024-0.051-0.046-0.075-0.07c-0.243-0.243-0.495-0.481-0.762-0.708
		c-0.273-0.233-0.56-0.454-0.855-0.666c-0.057-0.041-0.116-0.077-0.173-0.117c-0.192-0.133-0.382-0.267-0.581-0.39
		c-0.015-0.009-0.031-0.009-0.046-0.017c-0.866-0.53-1.788-0.955-2.731-1.271c-0.022-0.009-0.038-0.027-0.061-0.035
		c-0.058-0.019-0.116-0.027-0.175-0.045c-0.448-0.14-0.897-0.261-1.349-0.348c-0.059-0.011-0.117-0.016-0.176-0.026
		c-0.407-0.072-0.811-0.118-1.213-0.144c-0.064-0.004-0.13-0.02-0.194-0.023c-0.025-0.002-0.047,0.01-0.072,0.009
		c-0.13-0.005-0.262-0.02-0.391-0.02c-1.04,0-1.977,0.18-2.755,0.505c-0.022,0.008-0.046,0.005-0.068,0.014
		c-0.106,0.046-0.21,0.096-0.31,0.147c-0.135,0.07-0.258,0.157-0.367,0.258c-0.058,0.054-0.102,0.119-0.151,0.18
		c-0.043,0.053-0.093,0.101-0.129,0.159c-0.041,0.065-0.066,0.138-0.098,0.208c-0.03,0.065-0.065,0.128-0.086,0.197
		c-0.019,0.063-0.023,0.129-0.035,0.193c-0.013,0.073-0.036,0.143-0.039,0.217c0,0.013,0.004,0.026,0.003,0.039
		c0,0.011-0.004,0.021-0.004,0.032c0,0.063,0.016,0.123,0.023,0.185c0.008,0.071,0.01,0.142,0.027,0.21
		c0.015,0.064,0.044,0.122,0.067,0.182c0.027,0.071,0.047,0.144,0.083,0.21c0.033,0.06,0.078,0.112,0.118,0.167
		c0.041,0.057,0.076,0.119,0.125,0.171c0.097,0.103,0.207,0.196,0.33,0.274c0.006,0.004,0.012,0.008,0.018,0.011
		c3.209,2.032,6.198,4.381,8.946,6.99c0.21,0.199,0.425,0.393,0.631,0.594c0.655,0.641,1.283,1.309,1.908,1.98
		c-0.237,0.182-0.392,0.466-0.392,0.794c0,0.495,0.383,0.886,0.859,0.967l-0.152,0.168l1.587-0.152
		c0.161,0.057,0.33,0.095,0.505,0.095c0.258,0,0.499-0.077,0.716-0.193l1.482-0.094l-0.135-0.115
		c0.524-0.107,0.878-0.604,0.789-1.136C33.29,50.187,32.809,49.813,32.295,49.877z"/>
	<path d="M37.027,48.508c-0.767,0.322-1.56,0.602-2.356,0.83c-0.531,0.152-0.838,0.706-0.686,1.236
		c0.125,0.439,0.525,0.725,0.961,0.725c0.091,0,0.184-0.013,0.275-0.039c0.873-0.25,1.741-0.556,2.581-0.908
		c0.509-0.214,0.748-0.8,0.534-1.31C38.123,48.533,37.536,48.298,37.027,48.508z"/>
	<path d="M50.204,39.702c0.219-0.578,0.35-1.142,0.383-1.67c0.014-0.218-0.017-0.43-0.082-0.629c0.131-0.329,0.265-0.656,0.38-0.992
		c0.18-0.521-0.098-1.091-0.62-1.271c-0.518-0.178-1.091,0.097-1.271,0.62c-0.058,0.166-0.117,0.332-0.179,0.497
		c-0.031,0.002-0.061,0.011-0.092,0.015c-0.023,0.003-0.045,0.008-0.067,0.011c-0.157,0.026-0.313,0.068-0.462,0.142
		c-0.003,0.001-0.005,0.001-0.008,0.002c-1.079,0.54-2.175,1.042-3.283,1.513c-0.732,0.313-1.47,0.614-2.213,0.895
		c-0.985,0.373-1.982,0.71-2.985,1.029c-0.555,0.177-1.112,0.344-1.672,0.503c-1.635,0.466-3.289,0.868-4.961,1.189l-0.857,0.166
		c-0.513,0.099-0.934,0.446-1.127,0.932c-0.193,0.484-0.127,1.027,0.177,1.45c0.348,0.487,0.828,0.92,1.393,1.301
		c0.009,0.007,0.014,0.017,0.023,0.023c0.111,0.074,0.235,0.141,0.354,0.211c0.193,0.114,0.395,0.219,0.606,0.321
		c0.132,0.063,0.261,0.127,0.399,0.185c0.147,0.062,0.3,0.117,0.454,0.173c0.142,0.052,0.285,0.1,0.431,0.146
		c0.147,0.046,0.293,0.091,0.444,0.131c0.04,0.011,0.078,0.025,0.118,0.035c0.024,0.006,0.047,0.005,0.071,0.009
		c0.884,0.219,1.836,0.347,2.825,0.36c0.011,0,0.02,0.007,0.031,0.007l0.147,0.001h0c0.001,0,0.001,0,0.001,0
		c0.426,0,0.849-0.027,1.271-0.068c0.085-0.008,0.169-0.016,0.253-0.026c-0.27,0.169-0.541,0.338-0.816,0.494
		c-0.48,0.271-0.65,0.882-0.378,1.362c0.184,0.325,0.522,0.508,0.871,0.508c0.167,0,0.336-0.042,0.491-0.13
		c0.79-0.446,1.563-0.945,2.298-1.483c0.431-0.316,0.527-0.91,0.237-1.353c0.241-0.081,0.476-0.171,0.708-0.264
		c0.152,0.085,0.314,0.144,0.484,0.144c0.243,0,0.487-0.088,0.68-0.266c0.345-0.319,0.677-0.653,1.001-0.992
		c1.933-1.229,3.373-2.846,4.182-4.436L50.204,39.702z"/>
	<path d="M50.062,26.595c0.052,0.516,0.486,0.9,0.994,0.9c0.033,0,0.067-0.002,0.101-0.005c0.55-0.056,0.95-0.546,0.896-1.095
		c-0.112-1.12-0.308-2.242-0.58-3.335c-0.135-0.535-0.679-0.857-1.213-0.729c-0.536,0.134-0.861,0.677-0.729,1.213
		C49.78,24.544,49.959,25.57,50.062,26.595z"/>
	<path d="M51.192,28.735c-0.564-0.015-1.019,0.404-1.043,0.955c-0.045,1.031-0.165,2.066-0.355,3.078
		c-0.103,0.543,0.254,1.065,0.797,1.168c0.063,0.012,0.125,0.018,0.187,0.018c0.472,0,0.891-0.334,0.981-0.814
		c0.209-1.104,0.34-2.235,0.389-3.361C52.172,29.227,51.744,28.76,51.192,28.735z"/>
	<path d="M30.758,27.543c-0.014,0.003-0.027,0.011-0.041,0.014c-0.123,0.027-0.241,0.068-0.351,0.123
		c-0.037,0.019-0.069,0.044-0.104,0.066c-0.083,0.051-0.163,0.105-0.235,0.17c-0.013,0.012-0.029,0.018-0.042,0.03
		c-0.016,0.015-0.021,0.036-0.035,0.052c-0.13,0.138-0.244,0.293-0.317,0.476c-0.193,0.483-0.128,1.026,0.176,1.451
		c0.51,0.716,1.295,1.321,2.248,1.797c0.182,0.091,0.367,0.18,0.563,0.261c0.134,0.055,0.273,0.104,0.412,0.154
		c0.158,0.057,0.317,0.112,0.481,0.163c0.14,0.043,0.28,0.084,0.424,0.122c0.2,0.053,0.404,0.099,0.611,0.142
		c0.114,0.023,0.224,0.05,0.34,0.071c0.024,0.004,0.047,0.01,0.071,0.015c0.035,0.006,0.069,0.007,0.104,0.009
		c0.659,0.106,1.342,0.171,2.046,0.171c0.001,0,0.001,0,0.001,0c0.325,0,0.649-0.015,0.972-0.039c0,0,0,0,0,0
		c0.026,0,0.053-0.001,0.08-0.003c0.001,0,0.002,0,0.004,0c0.472-0.038,0.939-0.109,1.402-0.197c0.121-0.023,0.24-0.047,0.36-0.073
		c0.433-0.094,0.862-0.205,1.285-0.343c0.018-0.006,0.037-0.009,0.055-0.015l0.029-0.009l0-0.001h0
		c1.053-0.352,2.015-0.826,2.883-1.375c0.011-0.007,0.024-0.009,0.035-0.016c0.02-0.012,0.036-0.028,0.056-0.041
		c0.426-0.274,0.827-0.567,1.203-0.875c0.029-0.024,0.059-0.048,0.088-0.072c0.389-0.324,0.748-0.662,1.079-1.012
		c0.015-0.015,0.032-0.028,0.046-0.043c0.004-0.005,0.005-0.011,0.01-0.016c0.795-0.852,1.414-1.759,1.829-2.65
		c0.005-0.011,0.014-0.019,0.02-0.03c0.063-0.137,0.116-0.272,0.169-0.408c0.01-0.027,0.023-0.054,0.033-0.081
		c0.067-0.177,0.125-0.353,0.175-0.527c0.004-0.015,0.01-0.03,0.014-0.045c0.048-0.173,0.087-0.343,0.118-0.511
		c0.003-0.017,0.009-0.035,0.012-0.052c0.029-0.167,0.048-0.33,0.06-0.492c0.001-0.016,0.005-0.033,0.006-0.049c0,0,0-0.001,0-0.001
		v0l0.004-0.109c0-0.042-0.009-0.081-0.012-0.122c-0.004-0.055-0.007-0.109-0.016-0.163c-0.009-0.049-0.022-0.096-0.035-0.143
		c-0.017-0.063-0.033-0.125-0.057-0.186c-0.012-0.031-0.029-0.06-0.043-0.09c-0.033-0.071-0.067-0.14-0.11-0.206
		c-0.01-0.015-0.022-0.029-0.033-0.043c-0.046-0.065-0.09-0.131-0.145-0.19c-0.006-0.006-0.014-0.009-0.02-0.015
		c-0.108-0.112-0.235-0.203-0.371-0.282c-0.019-0.011-0.037-0.023-0.057-0.033c-0.218-0.115-0.46-0.189-0.719-0.196
		c-0.049-0.001-0.093,0.019-0.14,0.024c-0.221,0.011-0.441,0.051-0.645,0.152c-0.887,0.445-1.788,0.858-2.695,1.256
		c-0.659,0.29-1.331,0.57-2.009,0.837c-1.097,0.433-2.207,0.834-3.328,1.2c-0.727,0.238-1.468,0.462-2.212,0.673
		c-1.605,0.454-3.229,0.848-4.871,1.164L30.758,27.543z"/>
</g>
</svg>